<svg id="visual" viewBox="0 0 480 270" width="480" height="270" xmlns="http://www.w3.org/2000/svg" xmlns:xlink="http://www.w3.org/1999/xlink" version="1.1"><rect x="0" y="0" width="480" height="270" fill="#fff"></rect><defs><linearGradient id="grad1_0" x1="43.8%" y1="0%" x2="100%" y2="100%"><stop offset="14.444444444444446%" stop-color="#ffffff" stop-opacity="1"></stop><stop offset="85.55555555555554%" stop-color="#ffffff" stop-opacity="1"></stop></linearGradient></defs><defs><linearGradient id="grad2_0" x1="0%" y1="0%" x2="56.3%" y2="100%"><stop offset="14.444444444444446%" stop-color="#ffffff" stop-opacity="1"></stop><stop offset="85.55555555555554%" stop-color="#ffffff" stop-opacity="1"></stop></linearGradient></defs><g transform="translate(480, 0)"><path d="M0 229.5C-33.7 230.2 -67.4 231 -87.8 212C-108.3 193.1 -115.4 154.4 -130.1 130.1C-144.8 105.8 -167 95.8 -184.8 76.5C-202.6 57.2 -216 28.6 -229.5 0L0 0Z" fill="#FFC107"></path></g><g transform="translate(0, 270)"><path d="M0 -229.5C30.3 -220.3 60.5 -211.1 80 -193.1C99.4 -175.1 108.1 -148.3 131.5 -131.5C155 -114.8 193.2 -108.1 212 -87.8C230.8 -67.6 230.2 -33.8 229.5 0L0 0Z" fill="#FFC107"></path></g></svg>