<svg id="visual" viewBox="0 0 900 675" width="900" height="675" xmlns="http://www.w3.org/2000/svg" xmlns:xlink="http://www.w3.org/1999/xlink" version="1.1"><rect x="0" y="0" width="900" height="675" fill="#fff"></rect><defs><linearGradient id="grad1_0" x1="25%" y1="0%" x2="100%" y2="100%"><stop offset="23.333333333333336%" stop-color="#ffffff" stop-opacity="1"></stop><stop offset="76.66666666666666%" stop-color="#ffffff" stop-opacity="1"></stop></linearGradient></defs><defs><linearGradient id="grad2_0" x1="0%" y1="0%" x2="75%" y2="100%"><stop offset="23.333333333333336%" stop-color="#ffffff" stop-opacity="1"></stop><stop offset="76.66666666666666%" stop-color="#ffffff" stop-opacity="1"></stop></linearGradient></defs><g transform="translate(900, 0)"><path d="M0 225C-44.2 221.9 -88.4 218.8 -112.5 194.9C-136.6 170.9 -140.5 126 -155.9 90C-171.3 54 -198.1 27 -225 0L0 0Z" fill="#FFC107"></path></g><g transform="translate(0, 675)"><path d="M0 -225C42.8 -221.1 85.7 -217.2 112.5 -194.9C139.3 -172.5 150.2 -131.6 166.3 -96C182.4 -60.4 203.7 -30.2 225 0L0 0Z" fill="#FFC107"></path></g></svg>