<svg id="visual" viewBox="0 0 900 675" width="900" height="675" xmlns="http://www.w3.org/2000/svg" xmlns:xlink="http://www.w3.org/1999/xlink" version="1.1"><rect x="0" y="0" width="900" height="675" fill="#fff"></rect><defs><linearGradient id="grad1_0" x1="25%" y1="0%" x2="100%" y2="100%"><stop offset="23.333333333333336%" stop-color="#ffffff" stop-opacity="1"></stop><stop offset="76.66666666666666%" stop-color="#ffffff" stop-opacity="1"></stop></linearGradient></defs><defs><linearGradient id="grad2_0" x1="0%" y1="0%" x2="75%" y2="100%"><stop offset="23.333333333333336%" stop-color="#ffffff" stop-opacity="1"></stop><stop offset="76.66666666666666%" stop-color="#ffffff" stop-opacity="1"></stop></linearGradient></defs><g transform="translate(900, 0)"><path d="M0 196.9C-40.5 195.2 -81 193.6 -98.4 170.5C-115.9 147.4 -110.4 103 -123 71C-135.5 39 -166.2 19.5 -196.9 0L0 0Z" fill="#FFC107"></path></g><g transform="translate(0, 675)"><path d="M0 -196.9C40.1 -195 80.3 -193.2 98.4 -170.5C116.6 -147.8 112.8 -104.4 125.6 -72.5C138.3 -40.6 167.6 -20.3 196.9 0L0 0Z" fill="#FFC107"></path></g></svg>