<svg id="visual" viewBox="0 0 960 540" width="960" height="540" xmlns="http://www.w3.org/2000/svg" xmlns:xlink="http://www.w3.org/1999/xlink" version="1.1"><rect x="0" y="0" width="960" height="540" fill="#fff"></rect><defs><linearGradient id="grad1_0" x1="43.8%" y1="0%" x2="100%" y2="100%"><stop offset="14.444444444444446%" stop-color="#ffffff" stop-opacity="1"></stop><stop offset="85.55555555555554%" stop-color="#ffffff" stop-opacity="1"></stop></linearGradient></defs><defs><linearGradient id="grad2_0" x1="0%" y1="0%" x2="56.3%" y2="100%"><stop offset="14.444444444444446%" stop-color="#ffffff" stop-opacity="1"></stop><stop offset="85.55555555555554%" stop-color="#ffffff" stop-opacity="1"></stop></linearGradient></defs><g transform="translate(960, 0)"><path d="M0 189C-37.3 186.5 -74.6 184 -94.5 163.7C-114.4 143.4 -117 105.2 -129.9 75C-142.8 44.8 -165.9 22.4 -189 0L0 0Z" fill="#FFC107"></path></g><g transform="translate(0, 540)"><path d="M0 -189C36.6 -186.1 73.2 -183.2 94.5 -163.7C115.8 -144.2 121.9 -108 135.1 -78C148.3 -48 168.7 -24 189 0L0 0Z" fill="#FFC107"></path></g></svg>